<?xml version="1.0" encoding="UTF-8" standalone="no"?>
<svg
   version="1.1"
   viewBox="0 0 949 751"
   width="949.0pt"
   height="751.0pt"
   id="svg66"
   sodipodi:docname="fitymi-logo2.svg"
   inkscape:version="1.4 (86a8ad7, 2024-10-11)"
   xmlns:inkscape="http://www.inkscape.org/namespaces/inkscape"
   xmlns:sodipodi="http://sodipodi.sourceforge.net/DTD/sodipodi-0.dtd"
   xmlns:xlink="http://www.w3.org/1999/xlink"
   xmlns="http://www.w3.org/2000/svg"
   xmlns:svg="http://www.w3.org/2000/svg">
  <sodipodi:namedview
     id="namedview66"
     pagecolor="#ffffff"
     bordercolor="#000000"
     borderopacity="0.25"
     inkscape:showpageshadow="2"
     inkscape:pageopacity="0.0"
     inkscape:pagecheckerboard="0"
     inkscape:deskcolor="#d1d1d1"
     inkscape:document-units="pt"
     inkscape:zoom="0.35355339"
     inkscape:cx="548.71486"
     inkscape:cy="533.15851"
     inkscape:window-width="1147"
     inkscape:window-height="1211"
     inkscape:window-x="1944"
     inkscape:window-y="135"
     inkscape:window-maximized="0"
     inkscape:current-layer="g66" />
  <defs
     id="defs1">
    <path
       d="M 0.00 0.00 L 949.00 0.00 L 949.00 751.00 L 0.00 751.00 L 0.00 0.00 Z M 490.01 691.73 C 527.74 690.53 565.12 682.30 599.90 667.57 C 633.88 653.63 665.33 633.17 692.47 608.47 C 700.10 600.85 708.09 593.34 715.04 585.12 C 740.52 556.60 760.67 523.28 774.11 487.48 C 782.34 466.23 787.70 444.22 791.33 421.76 C 792.17 414.12 793.55 406.62 793.61 398.92 C 794.86 388.91 794.52 378.57 794.45 368.46 C 794.49 362.59 793.41 356.83 793.42 350.95 C 789.80 304.85 776.10 259.29 753.04 219.15 C 746.52 207.31 738.83 196.16 730.78 185.32 C 720.98 172.27 710.24 159.84 698.49 148.50 C 677.95 128.95 655.65 111.61 630.56 98.26 C 615.52 89.88 599.79 82.80 583.57 77.03 C 568.40 71.64 552.65 67.75 536.89 64.51 C 529.92 63.04 522.94 61.95 515.84 61.22 C 510.27 60.26 504.62 60.61 499.02 59.74 C 478.75 58.93 458.48 59.01 438.33 61.53 C 398.67 66.24 360.95 79.32 325.84 98.13 C 308.09 108.13 291.17 119.53 275.52 132.58 C 251.83 153.14 230.68 175.93 213.56 202.30 C 190.40 237.72 174.43 277.78 167.02 319.45 C 164.07 335.76 162.16 352.41 162.39 369.00 C 162.34 376.02 162.45 383.03 162.52 390.05 C 162.51 394.93 163.58 399.67 163.55 404.56 C 167.26 444.37 178.42 483.45 196.56 519.10 C 209.49 544.75 226.16 568.32 245.49 589.53 C 252.69 597.02 259.98 604.41 267.54 611.54 C 284.93 627.05 304.00 640.46 324.24 651.99 C 350.97 666.63 379.50 677.82 409.26 684.50 C 425.09 688.28 440.77 689.89 456.92 691.41 C 468.11 691.60 478.74 693.27 490.01 691.73 Z"
       id="p0" />
    <path
       d="M 499.02 59.74 C 504.62 60.61 510.27 60.26 515.84 61.22 C 522.94 61.95 529.92 63.04 536.89 64.51 C 552.65 67.75 568.40 71.64 583.57 77.03 C 599.79 82.80 615.52 89.88 630.56 98.26 C 655.65 111.61 677.95 128.95 698.49 148.50 C 710.24 159.84 720.98 172.27 730.78 185.32 C 738.83 196.16 746.52 207.31 753.04 219.15 C 776.10 259.29 789.80 304.85 793.42 350.95 C 793.41 356.83 794.49 362.59 794.45 368.46 C 794.52 378.57 794.86 388.91 793.61 398.92 C 793.55 406.62 792.17 414.12 791.33 421.76 C 787.70 444.22 782.34 466.23 774.11 487.48 C 760.67 523.28 740.52 556.60 715.04 585.12 C 708.09 593.34 700.10 600.85 692.47 608.47 C 665.33 633.17 633.88 653.63 599.90 667.57 C 565.12 682.30 527.74 690.53 490.01 691.73 C 478.74 693.27 468.11 691.60 456.92 691.41 C 440.77 689.89 425.09 688.28 409.26 684.50 C 379.50 677.82 350.97 666.63 324.24 651.99 C 304.00 640.46 284.93 627.05 267.54 611.54 C 259.98 604.41 252.69 597.02 245.49 589.53 C 226.16 568.32 209.49 544.75 196.56 519.10 C 178.42 483.45 167.26 444.37 163.55 404.56 C 163.58 399.67 162.51 394.93 162.52 390.05 C 162.45 383.03 162.34 376.02 162.39 369.00 C 162.16 352.41 164.07 335.76 167.02 319.45 C 174.43 277.78 190.40 237.72 213.56 202.30 C 230.68 175.93 251.83 153.14 275.52 132.58 C 291.17 119.53 308.09 108.13 325.84 98.13 C 360.95 79.32 398.67 66.24 438.33 61.53 C 458.48 59.01 478.75 58.93 499.02 59.74 Z M 504.56 71.20 C 501.31 90.43 498.69 109.77 495.73 129.05 C 494.93 135.63 493.26 141.64 493.32 148.19 C 505.36 149.25 517.29 152.44 529.37 152.77 C 530.27 148.38 530.75 144.19 530.72 139.71 C 523.21 138.88 515.72 137.58 508.26 136.39 C 508.46 129.69 510.14 123.34 510.81 116.66 C 518.60 117.74 526.41 119.49 534.28 119.76 C 534.95 115.42 535.74 111.17 535.72 106.75 C 528.21 105.94 520.76 104.51 513.26 103.52 C 513.36 97.59 514.52 91.93 515.63 86.13 C 523.40 86.64 530.82 88.81 538.65 88.81 C 539.51 84.72 540.07 80.56 540.73 76.42 C 533.83 74.65 526.56 74.16 519.53 72.90 C 514.56 72.03 509.63 71.20 504.56 71.20 Z M 428.36 73.82 C 425.87 74.56 422.63 74.90 420.53 76.44 C 416.11 86.11 413.59 96.71 408.91 106.30 C 406.84 97.91 404.99 89.48 402.89 81.10 C 398.54 81.03 394.46 81.86 390.26 82.85 C 390.47 85.03 390.82 87.12 391.35 89.25 C 396.91 112.43 402.04 135.72 407.74 158.87 C 411.86 158.30 415.82 157.21 419.86 156.29 C 419.48 147.38 415.79 138.75 414.53 129.96 C 414.56 127.48 416.00 124.97 416.86 122.67 C 424.77 131.68 431.59 141.65 439.24 150.88 C 440.00 151.84 441.20 151.34 442.20 151.14 C 446.06 150.07 449.93 149.06 453.81 148.11 C 444.56 136.44 435.31 124.76 425.93 113.19 C 424.72 111.61 423.28 110.04 422.42 108.25 C 421.95 105.10 423.92 101.51 424.79 98.52 C 427.55 90.12 430.94 81.84 432.99 73.24 C 431.44 73.40 429.90 73.59 428.36 73.82 Z M 300.85 130.65 C 311.82 154.44 323.14 178.06 334.04 201.88 C 337.92 199.82 341.44 197.24 344.83 194.46 C 343.58 191.85 342.31 189.25 341.17 186.58 C 344.70 183.98 348.17 181.23 351.87 178.89 C 352.89 178.14 353.99 178.12 354.94 178.98 C 356.69 180.51 358.26 182.24 359.91 183.88 C 363.51 181.49 367.04 179.00 370.33 176.19 C 351.85 157.82 333.46 139.27 314.90 120.98 C 309.72 123.25 305.07 126.94 300.85 130.65 Z M 607.41 189.87 C 610.84 192.56 614.24 195.25 617.93 197.58 C 629.48 182.53 641.12 167.58 652.62 152.50 C 656.79 147.00 661.36 141.69 665.14 135.94 C 661.87 133.31 658.62 130.53 655.05 128.33 C 653.60 129.80 652.29 131.47 651.01 133.10 C 639.81 147.52 628.63 161.95 617.48 176.41 C 614.05 180.81 610.47 185.20 607.41 189.87 Z M 694.71 392.65 C 695.85 383.12 695.80 372.56 694.85 363.01 C 692.63 317.87 675.60 273.87 647.12 238.78 C 636.65 225.48 623.95 213.72 610.76 203.16 C 596.44 192.17 580.54 183.01 564.06 175.66 C 544.91 167.66 524.60 161.94 503.94 159.62 C 490.48 157.78 476.57 158.38 463.00 158.58 C 446.97 159.88 431.07 162.49 415.72 167.41 C 403.38 171.05 391.37 175.65 379.99 181.68 C 366.59 188.78 353.28 196.78 341.67 206.58 C 326.01 219.53 311.66 234.42 300.13 251.19 C 279.42 280.58 266.41 315.38 262.46 351.09 C 260.89 361.92 261.53 372.83 261.50 384.02 C 262.72 418.58 272.46 452.64 289.49 482.74 C 300.46 502.60 314.91 520.07 331.48 535.52 C 351.74 554.24 375.66 569.14 401.46 578.95 C 418.53 585.18 436.09 589.74 454.20 591.58 C 465.32 593.14 476.82 592.57 488.04 592.59 C 494.20 592.70 500.22 591.86 506.29 590.94 C 520.80 588.65 534.87 586.24 548.66 580.98 C 567.26 574.39 585.04 565.80 601.22 554.45 C 615.96 544.19 629.91 532.33 641.52 518.58 C 672.09 483.56 691.45 439.12 694.71 392.65 Z M 698.09 185.68 C 700.87 189.78 703.73 193.84 706.53 197.93 C 690.75 209.36 674.72 220.45 658.80 231.69 C 657.12 232.89 655.57 234.23 654.05 235.62 C 656.47 239.16 658.80 242.71 661.66 245.91 C 675.05 236.62 688.32 227.15 701.61 217.71 C 705.78 214.75 709.88 211.59 714.34 209.07 C 717.12 212.54 719.31 216.60 722.40 219.78 C 726.33 220.33 730.29 215.56 733.62 213.83 C 730.76 208.78 727.14 204.13 723.84 199.36 C 718.86 192.42 714.18 185.18 708.98 178.43 C 705.04 180.30 701.40 182.86 698.09 185.68 Z M 227.49 209.96 C 246.79 223.88 266.16 237.71 285.44 251.65 C 287.04 252.80 288.68 253.89 290.33 254.98 C 293.31 251.83 295.66 248.24 298.00 244.62 C 294.23 241.18 289.81 238.29 285.61 235.30 C 280.81 231.86 276.03 228.38 271.22 224.95 C 275.56 218.46 280.14 212.08 284.78 205.80 C 282.00 203.68 279.20 201.58 276.36 199.53 C 275.51 198.99 274.70 198.17 273.61 198.58 C 272.63 199.18 272.02 200.41 271.31 201.29 C 267.66 206.53 264.02 211.81 260.16 216.91 C 255.30 213.65 250.30 210.38 246.00 206.39 C 250.21 200.05 255.20 194.14 258.98 187.53 C 255.66 184.99 252.33 182.10 248.55 180.28 C 245.65 183.58 243.29 187.38 240.70 190.92 C 236.36 197.29 231.45 203.35 227.49 209.96 Z M 211.05 342.58 C 207.74 350.70 205.59 359.32 202.52 367.54 C 193.84 367.56 185.14 367.33 176.47 367.67 C 182.72 373.86 190.59 378.30 197.41 383.86 C 194.87 392.00 191.40 400.11 190.02 408.54 C 195.86 404.86 201.21 400.71 206.75 396.64 C 208.06 395.77 209.48 394.59 211.04 394.25 C 212.27 394.42 213.28 395.21 214.31 395.86 C 220.39 400.02 226.14 405.05 232.66 408.49 C 230.86 401.06 227.90 393.86 225.71 386.55 C 225.43 385.00 224.83 383.59 226.42 382.56 C 232.50 377.55 240.09 373.38 245.62 367.69 C 236.98 367.32 228.30 367.57 219.65 367.53 C 216.67 359.27 214.57 350.62 211.05 342.58 Z M 737.24 367.52 C 728.45 367.59 719.64 367.31 710.87 367.70 C 717.36 373.55 724.97 378.19 731.85 383.59 C 729.83 392.09 726.08 400.23 724.22 408.78 C 731.10 404.68 737.24 399.40 743.88 394.99 C 745.32 393.99 746.50 394.13 747.90 395.12 C 754.27 399.46 760.28 404.54 766.91 408.49 C 765.73 399.88 761.36 392.00 759.79 383.40 C 766.65 378.15 774.24 373.63 780.51 367.69 C 771.68 367.25 762.81 367.71 753.98 367.42 C 751.67 358.99 748.82 350.67 745.93 342.43 C 742.44 350.55 740.10 359.16 737.24 367.52 Z M 701.04 479.26 C 703.40 480.18 705.77 481.05 708.17 481.86 C 709.33 479.17 710.46 476.46 711.64 473.78 C 724.04 477.94 735.98 483.44 748.26 487.94 C 749.28 485.55 750.21 483.15 751.01 480.68 C 739.05 475.34 726.63 471.03 714.51 466.04 C 715.71 463.23 716.82 460.38 717.88 457.50 C 715.55 456.47 713.36 455.44 710.81 455.06 C 709.37 457.08 708.50 459.63 707.60 461.93 C 705.46 467.74 702.94 473.35 701.04 479.26 Z M 235.02 461.59 C 235.83 463.70 236.67 465.81 237.59 467.88 C 242.57 466.64 247.46 465.12 252.43 463.86 C 251.72 461.62 250.98 459.39 250.19 457.18 C 245.10 458.51 240.02 459.96 235.02 461.59 Z M 253.13 485.27 C 254.35 488.15 255.78 490.92 257.03 493.78 C 245.78 500.23 234.16 506.05 222.94 512.56 C 223.94 514.98 225.10 517.33 226.26 519.68 C 238.02 513.68 249.29 506.70 261.16 500.94 C 262.55 503.47 263.90 506.02 265.14 508.63 C 267.65 507.61 270.06 506.39 272.45 505.11 C 268.16 497.49 264.49 489.34 259.58 482.11 C 257.40 483.10 255.27 484.20 253.13 485.27 Z M 687.98 503.23 C 701.72 510.94 715.05 519.46 728.97 526.82 C 730.25 524.55 731.49 522.26 732.65 519.92 C 722.41 514.06 712.26 508.04 702.04 502.16 C 698.63 500.26 695.31 497.84 691.66 496.47 C 690.24 498.59 689.09 500.93 687.98 503.23 Z M 245.74 549.66 C 247.33 551.73 248.90 553.80 250.63 555.76 C 263.13 546.21 275.64 536.68 288.13 527.11 C 286.64 524.97 285.08 522.90 283.21 521.07 C 276.58 525.74 270.23 530.83 263.72 535.67 C 257.76 540.39 251.42 544.65 245.74 549.66 Z M 643.97 556.91 C 654.96 568.01 666.06 579.00 677.08 590.08 C 682.68 585.05 688.11 579.77 693.00 574.03 C 691.11 572.24 689.17 570.52 687.13 568.90 C 683.77 572.19 680.53 575.59 677.06 578.78 C 674.14 575.97 671.23 573.16 668.51 570.16 C 671.89 566.72 675.30 563.30 678.73 559.90 C 676.78 557.99 674.78 556.17 672.69 554.41 C 669.78 557.31 667.05 560.44 663.97 563.14 C 663.07 563.88 661.97 563.79 661.13 563.00 C 659.00 561.10 657.06 558.96 655.06 556.91 C 658.21 553.37 661.63 550.13 664.94 546.75 C 663.16 544.73 661.30 542.81 659.17 541.17 C 653.98 546.27 648.67 551.35 643.97 556.91 Z M 286.06 593.87 C 288.08 591.98 290.02 590.03 291.90 588.00 C 288.83 584.84 284.98 582.21 282.33 578.70 C 282.04 576.85 283.54 575.89 284.58 574.60 C 292.65 566.34 300.84 558.21 308.80 549.84 C 306.95 547.94 305.05 546.01 303.06 544.25 C 299.61 547.33 296.47 550.97 293.31 554.36 C 286.33 561.77 279.09 568.90 271.94 576.14 C 271.24 577.00 269.82 577.99 270.85 579.16 C 275.98 584.01 280.99 588.96 286.06 593.87 Z M 623.81 572.80 C 622.98 573.29 622.15 573.79 621.32 574.29 C 621.22 580.96 621.44 587.64 621.24 594.30 C 617.31 590.33 614.98 585.51 611.38 581.21 C 609.31 582.66 607.24 584.10 605.17 585.56 C 613.94 598.72 622.72 611.90 631.76 624.87 C 633.93 623.42 636.05 621.91 638.09 620.27 C 635.25 615.84 631.74 611.65 629.42 606.93 C 629.28 605.45 629.18 603.97 629.14 602.48 C 635.62 605.88 641.86 609.76 648.04 613.66 C 650.58 612.11 653.07 610.51 655.54 608.85 C 649.40 605.13 643.29 601.38 637.05 597.84 C 634.29 596.11 631.15 594.68 628.70 592.52 C 627.22 585.12 627.96 578.23 627.48 570.77 C 626.25 571.43 625.03 572.11 623.81 572.80 Z M 353.75 585.75 C 351.66 595.11 350.83 604.78 348.71 614.11 C 346.28 620.23 342.32 625.71 339.68 631.77 C 341.93 632.94 344.16 634.12 346.40 635.28 C 349.60 630.44 351.76 625.33 354.57 620.30 C 356.38 616.93 359.81 614.22 362.51 611.50 C 367.22 606.81 372.29 602.53 377.02 597.87 C 374.84 596.58 372.50 595.13 370.07 594.40 C 365.09 598.51 361.52 604.00 356.44 608.06 C 357.84 601.80 359.19 595.52 360.65 589.27 C 358.40 587.99 356.10 586.84 353.75 585.75 Z M 570.20 602.86 C 573.35 618.59 577.20 634.21 580.75 649.85 C 583.08 649.06 585.38 648.19 587.67 647.29 C 587.49 645.40 587.29 643.51 587.08 641.62 C 589.59 640.61 592.17 638.95 594.82 638.50 C 596.29 638.99 597.36 640.81 598.61 641.75 C 600.91 641.81 603.33 640.47 605.52 639.82 C 602.34 634.06 598.55 628.61 595.02 623.06 C 589.80 615.05 584.86 606.80 579.26 599.05 C 576.21 600.26 573.22 601.57 570.20 602.86 Z M 411.72 632.44 C 413.70 626.31 416.74 619.41 412.69 613.39 C 408.82 606.69 399.14 605.28 393.36 610.31 C 389.63 613.34 388.80 617.37 387.34 621.70 C 385.53 627.52 383.45 633.26 381.77 639.11 C 380.45 645.31 384.46 652.68 390.68 654.50 C 397.03 657.20 404.91 652.61 407.22 646.46 C 408.88 641.84 410.19 637.10 411.72 632.44 Z M 529.41 624.43 C 526.90 622.09 524.60 619.07 521.67 617.26 C 518.85 617.08 515.83 617.75 513.11 618.43 C 515.79 633.95 519.34 649.32 522.10 664.83 C 524.71 664.57 527.28 664.15 529.84 663.63 C 528.03 652.04 525.27 640.59 523.15 629.05 C 526.37 631.50 529.25 634.31 532.16 637.12 C 533.96 633.52 535.59 629.85 537.17 626.15 C 540.38 637.19 541.96 648.71 544.43 659.93 C 546.93 659.76 549.43 659.57 551.93 659.34 C 551.73 657.02 551.57 654.76 551.10 652.48 C 548.35 639.36 545.69 626.21 542.90 613.10 C 540.23 613.25 537.56 613.42 534.90 613.72 C 532.80 617.16 531.57 621.01 529.41 624.43 Z M 464.78 619.79 C 462.40 619.63 460.02 619.45 457.64 619.29 C 456.46 627.37 455.76 635.49 454.73 643.58 C 454.29 647.53 454.39 652.27 452.88 655.96 C 450.62 660.12 444.55 659.05 443.44 654.72 C 442.99 648.61 444.43 642.23 444.97 636.10 C 445.55 629.97 446.65 623.95 446.72 617.79 C 444.27 617.62 441.77 617.37 439.32 617.47 C 437.75 627.05 437.11 636.93 435.66 646.57 C 435.40 651.71 434.26 656.84 437.79 661.12 C 442.25 667.63 452.35 668.60 457.67 662.62 C 461.58 658.77 461.69 654.03 462.35 648.91 C 462.84 639.10 464.89 629.66 464.78 619.79 Z"
       id="p1" />
    <path
       d="M 504.56 71.20 C 509.63 71.20 514.56 72.03 519.53 72.90 C 526.56 74.16 533.83 74.65 540.73 76.42 C 540.07 80.56 539.51 84.72 538.65 88.81 C 530.82 88.81 523.40 86.64 515.63 86.13 C 514.52 91.93 513.36 97.59 513.26 103.52 C 520.76 104.51 528.21 105.94 535.72 106.75 C 535.74 111.17 534.95 115.42 534.28 119.76 C 526.41 119.49 518.60 117.74 510.81 116.66 C 510.14 123.34 508.46 129.69 508.26 136.39 C 515.72 137.58 523.21 138.88 530.72 139.71 C 530.75 144.19 530.27 148.38 529.37 152.77 C 517.29 152.44 505.36 149.25 493.32 148.19 C 493.26 141.64 494.93 135.63 495.73 129.05 C 498.69 109.77 501.31 90.43 504.56 71.20 Z"
       id="p2" />
    <path
       d="M 432.99 73.24 C 430.94 81.84 427.55 90.12 424.79 98.52 C 423.92 101.51 421.95 105.10 422.42 108.25 C 423.28 110.04 424.72 111.61 425.93 113.19 C 435.31 124.76 444.56 136.44 453.81 148.11 C 449.93 149.06 446.06 150.07 442.20 151.14 C 441.20 151.34 440.00 151.84 439.24 150.88 C 431.59 141.65 424.77 131.68 416.86 122.67 C 416.00 124.97 414.56 127.48 414.53 129.96 C 415.79 138.75 419.48 147.38 419.86 156.29 C 415.82 157.21 411.86 158.30 407.74 158.87 C 402.04 135.72 396.91 112.43 391.35 89.25 C 390.82 87.12 390.47 85.03 390.26 82.85 C 394.46 81.86 398.54 81.03 402.89 81.10 C 404.99 89.48 406.84 97.91 408.91 106.30 C 413.59 96.71 416.11 86.11 420.53 76.44 C 422.63 74.90 425.87 74.56 428.36 73.82 C 429.90 73.59 431.44 73.40 432.99 73.24 Z"
       id="p3" />
    <path
       d="M 314.90 120.98 C 333.46 139.27 351.85 157.82 370.33 176.19 C 367.04 179.00 363.51 181.49 359.91 183.88 C 358.26 182.24 356.69 180.51 354.94 178.98 C 353.99 178.12 352.89 178.14 351.87 178.89 C 348.17 181.23 344.70 183.98 341.17 186.58 C 342.31 189.25 343.58 191.85 344.83 194.46 C 341.44 197.24 337.92 199.82 334.04 201.88 C 323.14 178.06 311.82 154.44 300.85 130.65 C 305.07 126.94 309.72 123.25 314.90 120.98 Z M 322.07 146.17 C 323.65 151.50 326.63 156.64 329.06 161.71 C 331.28 166.07 333.15 170.76 335.87 174.83 C 339.29 174.36 342.33 171.16 344.98 169.12 C 340.75 164.65 336.34 160.37 332.28 155.75 C 329.02 152.22 326.26 148.65 322.07 146.17 Z"
       id="p4" />
    <path
       d="M 655.05 128.33 C 658.62 130.53 661.87 133.31 665.14 135.94 C 661.36 141.69 656.79 147.00 652.62 152.50 C 641.12 167.58 629.48 182.53 617.93 197.58 C 614.24 195.25 610.84 192.56 607.41 189.87 C 610.47 185.20 614.05 180.81 617.48 176.41 C 628.63 161.95 639.81 147.52 651.01 133.10 C 652.29 131.47 653.60 129.80 655.05 128.33 Z"
       id="p5" />
    <path
       d="M 322.07 146.17 C 326.26 148.65 329.02 152.22 332.28 155.75 C 336.34 160.37 340.75 164.65 344.98 169.12 C 342.33 171.16 339.29 174.36 335.87 174.83 C 333.15 170.76 331.28 166.07 329.06 161.71 C 326.63 156.64 323.65 151.50 322.07 146.17 Z"
       id="p6" />
    <path
       d="M 463.00 158.58 C 476.57 158.38 490.48 157.78 503.94 159.62 C 524.60 161.94 544.91 167.66 564.06 175.66 C 580.54 183.01 596.44 192.17 610.76 203.16 C 623.95 213.72 636.65 225.48 647.12 238.78 C 675.60 273.87 692.63 317.87 694.85 363.01 C 695.80 372.56 695.85 383.12 694.71 392.65 C 691.45 439.12 672.09 483.56 641.52 518.58 C 629.91 532.33 615.96 544.19 601.22 554.45 C 585.04 565.80 567.26 574.39 548.66 580.98 C 534.87 586.24 520.80 588.65 506.29 590.94 C 500.22 591.86 494.20 592.70 488.04 592.59 C 476.82 592.57 465.32 593.14 454.20 591.58 C 436.09 589.74 418.53 585.18 401.46 578.95 C 375.66 569.14 351.74 554.24 331.48 535.52 C 314.91 520.07 300.46 502.60 289.49 482.74 C 272.46 452.64 262.72 418.58 261.50 384.02 C 261.53 372.83 260.89 361.92 262.46 351.09 C 266.41 315.38 279.42 280.58 300.13 251.19 C 311.66 234.42 326.01 219.53 341.67 206.58 C 353.28 196.78 366.59 188.78 379.99 181.68 C 391.37 175.65 403.38 171.05 415.72 167.41 C 431.07 162.49 446.97 159.88 463.00 158.58 Z M 686.74 357.41 C 682.34 301.89 654.43 248.94 611.31 213.73 C 602.79 206.30 593.09 200.11 583.49 194.20 C 558.71 179.71 530.76 170.53 502.26 167.22 C 496.81 166.26 491.52 166.40 486.00 166.28 C 476.87 166.23 467.70 166.17 458.58 166.62 C 449.23 167.84 439.91 169.20 430.72 171.35 C 414.64 174.68 399.66 180.57 384.91 187.66 C 369.64 195.57 355.22 204.99 342.07 216.08 C 333.96 223.32 326.29 231.03 319.09 239.18 C 300.65 261.09 286.13 286.80 277.93 314.28 C 274.17 326.54 271.56 339.17 270.15 351.91 C 269.02 358.81 269.39 366.02 269.28 373.00 C 269.42 382.15 268.99 390.96 270.48 400.00 C 274.71 438.05 289.87 474.53 313.39 504.69 C 319.73 513.17 327.17 520.88 334.90 528.10 C 347.81 540.68 363.10 551.17 378.71 560.09 C 384.44 563.03 390.32 565.75 396.15 568.48 C 418.79 577.80 443.48 584.00 467.98 584.89 C 475.27 585.63 482.70 585.48 489.99 584.77 C 503.44 584.46 517.00 581.73 530.07 578.69 C 548.62 573.60 567.26 566.52 583.78 556.61 C 601.43 546.23 617.40 533.33 631.51 518.51 C 660.46 487.42 679.79 447.60 685.68 405.47 C 686.62 398.31 687.72 391.14 687.62 383.99 C 687.57 375.18 688.01 366.15 686.74 357.41 Z"
       id="p7" />
    <path
       d="M 486.00 166.28 C 491.52 166.40 496.81 166.26 502.26 167.22 C 530.76 170.53 558.71 179.71 583.49 194.20 C 593.09 200.11 602.79 206.30 611.31 213.73 C 654.43 248.94 682.34 301.89 686.74 357.41 C 688.01 366.15 687.57 375.18 687.62 383.99 C 687.72 391.14 686.62 398.31 685.68 405.47 C 679.79 447.60 660.46 487.42 631.51 518.51 C 617.40 533.33 601.43 546.23 583.78 556.61 C 567.26 566.52 548.62 573.60 530.07 578.69 C 517.00 581.73 503.44 584.46 489.99 584.77 C 482.70 585.48 475.27 585.63 467.98 584.89 C 443.48 584.00 418.79 577.80 396.15 568.48 C 390.32 565.75 384.44 563.03 378.71 560.09 C 363.10 551.17 347.81 540.68 334.90 528.10 C 327.17 520.88 319.73 513.17 313.39 504.69 C 289.87 474.53 274.71 438.05 270.48 400.00 C 268.99 390.96 269.42 382.15 269.28 373.00 C 269.39 366.02 269.02 358.81 270.15 351.91 C 271.56 339.17 274.17 326.54 277.93 314.28 C 286.13 286.80 300.65 261.09 319.09 239.18 C 326.29 231.03 333.96 223.32 342.07 216.08 C 355.22 204.99 369.64 195.57 384.91 187.66 C 399.66 180.57 414.64 174.68 430.72 171.35 C 439.91 169.20 449.23 167.84 458.58 166.62 C 467.70 166.17 476.87 166.23 486.00 166.28 Z M 487.99 175.23 C 478.71 173.86 469.82 175.27 460.57 175.61 C 448.15 176.60 435.91 178.99 423.93 182.41 C 390.80 191.30 360.34 210.03 336.06 234.09 C 329.59 241.32 322.90 248.24 317.29 256.18 C 302.45 275.95 291.70 298.66 285.03 322.43 C 281.78 334.33 279.94 346.33 278.57 358.57 C 278.18 369.60 278.24 380.68 278.54 391.71 C 280.03 406.07 282.36 420.24 286.67 434.05 C 292.49 453.69 301.67 472.11 313.10 489.06 C 322.20 501.81 332.36 514.45 344.35 524.58 C 355.61 535.08 368.26 543.63 381.58 551.28 C 408.26 566.11 438.64 574.65 469.14 575.86 C 475.71 576.58 482.28 576.40 488.85 575.76 C 509.69 575.13 530.65 570.16 550.19 563.02 C 563.81 557.75 576.90 550.94 589.02 542.78 C 597.99 536.99 606.42 530.41 614.17 523.06 C 624.99 513.78 634.22 502.20 642.56 490.69 C 658.73 467.72 669.95 441.39 675.25 413.80 C 676.67 406.27 677.68 398.67 678.43 391.05 C 678.82 381.70 678.75 372.32 678.56 362.96 C 676.07 322.74 661.24 283.35 636.18 251.73 C 613.47 222.42 582.13 199.82 547.40 186.92 C 528.12 180.27 508.45 175.66 487.99 175.23 Z"
       id="p8" />
    <path
       d="M 487.99 175.23 C 508.45 175.66 528.12 180.27 547.40 186.92 C 582.13 199.82 613.47 222.42 636.18 251.73 C 661.24 283.35 676.07 322.74 678.56 362.96 C 678.75 372.32 678.82 381.70 678.43 391.05 C 677.68 398.67 676.67 406.27 675.25 413.80 C 669.95 441.39 658.73 467.72 642.56 490.69 C 634.22 502.20 624.99 513.78 614.17 523.06 C 606.42 530.41 597.99 536.99 589.02 542.78 C 576.90 550.94 563.81 557.75 550.19 563.02 C 530.65 570.16 509.69 575.13 488.85 575.76 C 482.28 576.40 475.71 576.58 469.14 575.86 C 438.64 574.65 408.26 566.11 381.58 551.28 C 368.26 543.63 355.61 535.08 344.35 524.58 C 332.36 514.45 322.20 501.81 313.10 489.06 C 301.67 472.11 292.49 453.69 286.67 434.05 C 282.36 420.24 280.03 406.07 278.54 391.71 C 278.24 380.68 278.18 369.60 278.57 358.57 C 279.94 346.33 281.78 334.33 285.03 322.43 C 291.70 298.66 302.45 275.95 317.29 256.18 C 322.90 248.24 329.59 241.32 336.06 234.09 C 360.34 210.03 390.80 191.30 423.93 182.41 C 435.91 178.99 448.15 176.60 460.57 175.61 C 469.82 175.27 478.71 173.86 487.99 175.23 Z M 406.48 353.73 C 420.18 353.81 433.89 353.86 447.59 353.70 C 447.51 322.81 447.57 291.90 447.56 261.01 C 447.43 255.83 448.19 251.22 445.98 246.38 C 443.69 240.89 439.90 237.20 434.35 235.08 C 425.29 231.06 413.55 235.56 408.96 244.19 C 407.29 247.24 406.38 250.44 406.48 253.94 C 406.47 287.20 406.49 320.47 406.48 353.73 Z M 502.00 429.43 C 496.06 437.48 487.18 442.76 477.01 442.64 C 468.57 443.11 460.62 439.06 454.98 432.97 C 449.87 427.48 448.14 420.65 447.35 413.37 C 441.94 413.34 436.49 413.20 431.09 413.53 C 435.06 417.07 439.41 420.04 443.06 423.94 C 456.76 437.71 463.07 457.39 461.27 476.59 C 460.16 479.25 456.69 480.75 454.47 478.53 C 452.14 476.33 452.72 472.93 452.61 470.04 C 452.96 457.66 448.81 445.56 441.51 435.63 C 433.03 424.46 420.57 416.52 406.73 413.99 C 402.41 412.98 397.92 414.07 394.08 412.21 C 391.22 409.24 392.77 407.38 394.59 404.49 C 415.08 404.40 435.57 404.47 456.06 404.46 C 461.96 404.61 467.89 402.25 472.04 398.05 C 480.20 390.30 479.71 375.14 470.92 368.03 C 466.42 364.10 460.88 362.93 455.06 362.71 C 430.68 362.71 406.31 362.73 381.93 362.70 C 377.61 362.83 372.97 363.71 369.18 365.90 C 363.17 369.18 359.18 376.12 359.41 382.96 C 359.37 393.64 359.41 404.32 359.40 415.00 C 358.59 446.93 372.10 478.88 395.00 501.06 C 413.61 519.55 438.26 531.29 464.28 534.47 C 473.84 534.85 483.45 534.96 493.00 534.41 C 511.66 531.71 529.67 525.35 545.19 514.52 C 553.06 508.96 561.02 502.68 567.20 495.25 C 587.22 473.08 598.58 442.89 597.57 412.99 C 597.56 371.32 597.59 329.61 597.56 287.94 C 597.68 280.64 593.19 273.35 586.67 270.10 C 582.76 267.77 577.31 268.03 572.93 268.42 C 563.48 269.75 556.40 278.49 556.51 287.93 C 556.48 329.97 556.51 372.01 556.49 414.05 C 556.47 420.85 553.54 427.20 549.38 432.45 C 545.32 437.53 538.94 440.84 532.68 442.26 C 525.15 443.47 517.35 442.12 510.91 437.94 C 507.27 435.72 504.75 432.61 502.00 429.43 Z M 456.37 353.53 C 460.95 354.54 465.33 354.60 469.64 356.71 C 477.36 360.46 483.55 367.50 485.69 375.89 C 489.37 388.68 483.43 403.13 471.65 409.38 C 467.08 411.96 462.17 412.78 457.06 413.58 C 457.28 416.50 457.04 419.69 458.45 422.30 C 461.09 427.66 466.41 431.71 472.09 433.38 C 476.25 433.89 481.00 433.98 484.89 432.22 C 490.67 429.80 495.30 424.59 496.92 418.53 C 497.73 415.86 497.62 412.79 497.65 410.01 C 497.58 383.66 497.70 357.28 497.59 330.93 C 497.58 319.94 486.99 310.06 475.97 311.32 C 465.62 311.24 456.57 320.72 456.47 330.94 C 456.36 338.46 456.56 346.00 456.37 353.53 Z M 547.56 405.00 C 547.55 380.65 547.58 356.28 547.55 331.93 C 547.93 322.21 540.44 313.18 530.91 311.53 C 528.03 311.21 525.06 311.22 522.21 311.68 C 513.15 313.81 506.15 322.56 506.48 331.95 C 506.46 358.98 506.47 386.03 506.48 413.05 C 506.30 421.33 511.54 429.04 519.08 432.31 C 523.02 433.97 527.73 433.94 531.90 433.37 C 538.40 431.64 544.20 426.51 546.40 420.11 C 548.20 415.56 547.39 409.86 547.56 405.00 Z"
       id="p9" />
    <path
       d="M 708.98 178.43 C 714.18 185.18 718.86 192.42 723.84 199.36 C 727.14 204.13 730.76 208.78 733.62 213.83 C 730.29 215.56 726.33 220.33 722.40 219.78 C 719.31 216.60 717.12 212.54 714.34 209.07 C 709.88 211.59 705.78 214.75 701.61 217.71 C 688.32 227.15 675.05 236.62 661.66 245.91 C 658.80 242.71 656.47 239.16 654.05 235.62 C 655.57 234.23 657.12 232.89 658.80 231.69 C 674.72 220.45 690.75 209.36 706.53 197.93 C 703.73 193.84 700.87 189.78 698.09 185.68 C 701.40 182.86 705.04 180.30 708.98 178.43 Z"
       id="p10" />
    <path
       d="M 248.55 180.28 C 252.33 182.10 255.66 184.99 258.98 187.53 C 255.20 194.14 250.21 200.05 246.00 206.39 C 250.30 210.38 255.30 213.65 260.16 216.91 C 264.02 211.81 267.66 206.53 271.31 201.29 C 272.02 200.41 272.63 199.18 273.61 198.58 C 274.70 198.17 275.51 198.99 276.36 199.53 C 279.20 201.58 282.00 203.68 284.78 205.80 C 280.14 212.08 275.56 218.46 271.22 224.95 C 276.03 228.38 280.81 231.86 285.61 235.30 C 289.81 238.29 294.23 241.18 298.00 244.62 C 295.66 248.24 293.31 251.83 290.33 254.98 C 288.68 253.89 287.04 252.80 285.44 251.65 C 266.16 237.71 246.79 223.88 227.49 209.96 C 231.45 203.35 236.36 197.29 240.70 190.92 C 243.29 187.38 245.65 183.58 248.55 180.28 Z"
       id="p11" />
    <path
       d="M 434.35 235.08 C 439.90 237.20 443.69 240.89 445.98 246.38 C 448.19 251.22 447.43 255.83 447.56 261.01 C 447.57 291.90 447.51 322.81 447.59 353.70 C 433.89 353.86 420.18 353.81 406.48 353.73 C 406.49 320.47 406.47 287.20 406.48 253.94 C 406.38 250.44 407.29 247.24 408.96 244.19 C 413.55 235.56 425.29 231.06 434.35 235.08 Z"
       id="p12" />
    <path
       d="M 572.93 268.42 C 577.31 268.03 582.76 267.77 586.67 270.10 C 593.19 273.35 597.68 280.64 597.56 287.94 C 597.59 329.61 597.56 371.32 597.57 412.99 C 598.58 442.89 587.22 473.08 567.20 495.25 C 561.02 502.68 553.06 508.96 545.19 514.52 C 529.67 525.35 511.66 531.71 493.00 534.41 C 483.45 534.96 473.84 534.85 464.28 534.47 C 438.26 531.29 413.61 519.55 395.00 501.06 C 372.10 478.88 358.59 446.93 359.40 415.00 C 359.41 404.32 359.37 393.64 359.41 382.96 C 359.18 376.12 363.17 369.18 369.18 365.90 C 372.97 363.71 377.61 362.83 381.93 362.70 C 406.31 362.73 430.68 362.71 455.06 362.71 C 460.88 362.93 466.42 364.10 470.92 368.03 C 479.71 375.14 480.20 390.30 472.04 398.05 C 467.89 402.25 461.96 404.61 456.06 404.46 C 435.57 404.47 415.08 404.40 394.59 404.49 C 392.77 407.38 391.22 409.24 394.08 412.21 C 397.92 414.07 402.41 412.98 406.73 413.99 C 420.57 416.52 433.03 424.46 441.51 435.63 C 448.81 445.56 452.96 457.66 452.61 470.04 C 452.72 472.93 452.14 476.33 454.47 478.53 C 456.69 480.75 460.16 479.25 461.27 476.59 C 463.07 457.39 456.76 437.71 443.06 423.94 C 439.41 420.04 435.06 417.07 431.09 413.53 C 436.49 413.20 441.94 413.34 447.35 413.37 C 448.14 420.65 449.87 427.48 454.98 432.97 C 460.62 439.06 468.57 443.11 477.01 442.64 C 487.18 442.76 496.06 437.48 502.00 429.43 C 504.75 432.61 507.27 435.72 510.91 437.94 C 517.35 442.12 525.15 443.47 532.68 442.26 C 538.94 440.84 545.32 437.53 549.38 432.45 C 553.54 427.20 556.47 420.85 556.49 414.05 C 556.51 372.01 556.48 329.97 556.51 287.93 C 556.40 278.49 563.48 269.75 572.93 268.42 Z"
       id="p13" />
    <path
       d="M 475.97 311.32 C 486.99 310.06 497.58 319.94 497.59 330.93 C 497.70 357.28 497.58 383.66 497.65 410.01 C 497.62 412.79 497.73 415.86 496.92 418.53 C 495.30 424.59 490.67 429.80 484.89 432.22 C 481.00 433.98 476.25 433.89 472.09 433.38 C 466.41 431.71 461.09 427.66 458.45 422.30 C 457.04 419.69 457.28 416.50 457.06 413.58 C 462.17 412.78 467.08 411.96 471.65 409.38 C 483.43 403.13 489.37 388.68 485.69 375.89 C 483.55 367.50 477.36 360.46 469.64 356.71 C 465.33 354.60 460.95 354.54 456.37 353.53 C 456.56 346.00 456.36 338.46 456.47 330.94 C 456.57 320.72 465.62 311.24 475.97 311.32 Z"
       id="p14" />
    <path
       d="M 522.21 311.68 C 525.06 311.22 528.03 311.21 530.91 311.53 C 540.44 313.18 547.93 322.21 547.55 331.93 C 547.58 356.28 547.55 380.65 547.56 405.00 C 547.39 409.86 548.20 415.56 546.40 420.11 C 544.20 426.51 538.40 431.64 531.90 433.37 C 527.73 433.94 523.02 433.97 519.08 432.31 C 511.54 429.04 506.30 421.33 506.48 413.05 C 506.47 386.03 506.46 358.98 506.48 331.95 C 506.15 322.56 513.15 313.81 522.21 311.68 Z"
       id="p15" />
    <path
       d="M 211.05 342.58 C 214.57 350.62 216.67 359.27 219.65 367.53 C 228.30 367.57 236.98 367.32 245.62 367.69 C 240.09 373.38 232.50 377.55 226.42 382.56 C 224.83 383.59 225.43 385.00 225.71 386.55 C 227.90 393.86 230.86 401.06 232.66 408.49 C 226.14 405.05 220.39 400.02 214.31 395.86 C 213.28 395.21 212.27 394.42 211.04 394.25 C 209.48 394.59 208.06 395.77 206.75 396.64 C 201.21 400.71 195.86 404.86 190.02 408.54 C 191.40 400.11 194.87 392.00 197.41 383.86 C 190.59 378.30 182.72 373.86 176.47 367.67 C 185.14 367.33 193.84 367.56 202.52 367.54 C 205.59 359.32 207.74 350.70 211.05 342.58 Z"
       id="p16" />
    <path
       d="M 745.93 342.43 C 748.82 350.67 751.67 358.99 753.98 367.42 C 762.81 367.71 771.68 367.25 780.51 367.69 C 774.24 373.63 766.65 378.15 759.79 383.40 C 761.36 392.00 765.73 399.88 766.91 408.49 C 760.28 404.54 754.27 399.46 747.90 395.12 C 746.50 394.13 745.32 393.99 743.88 394.99 C 737.24 399.40 731.10 404.68 724.22 408.78 C 726.08 400.23 729.83 392.09 731.85 383.59 C 724.97 378.19 717.36 373.55 710.87 367.70 C 719.64 367.31 728.45 367.59 737.24 367.52 C 740.10 359.16 742.44 350.55 745.93 342.43 Z"
       id="p17" />
    <path
       d="M 710.81 455.06 C 713.36 455.44 715.55 456.47 717.88 457.50 C 716.82 460.38 715.71 463.23 714.51 466.04 C 726.63 471.03 739.05 475.34 751.01 480.68 C 750.21 483.15 749.28 485.55 748.26 487.94 C 735.98 483.44 724.04 477.94 711.64 473.78 C 710.46 476.46 709.33 479.17 708.17 481.86 C 705.77 481.05 703.40 480.18 701.04 479.26 C 702.94 473.35 705.46 467.74 707.60 461.93 C 708.50 459.63 709.37 457.08 710.81 455.06 Z"
       id="p18" />
    <path
       d="M 250.19 457.18 C 250.98 459.39 251.72 461.62 252.43 463.86 C 247.46 465.12 242.57 466.64 237.59 467.88 C 236.67 465.81 235.83 463.70 235.02 461.59 C 240.02 459.96 245.10 458.51 250.19 457.18 Z"
       id="p19" />
    <path
       d="M 259.58 482.11 C 264.49 489.34 268.16 497.49 272.45 505.11 C 270.06 506.39 267.65 507.61 265.14 508.63 C 263.90 506.02 262.55 503.47 261.16 500.94 C 249.29 506.70 238.02 513.68 226.26 519.68 C 225.10 517.33 223.94 514.98 222.94 512.56 C 234.16 506.05 245.78 500.23 257.03 493.78 C 255.78 490.92 254.35 488.15 253.13 485.27 C 255.27 484.20 257.40 483.10 259.58 482.11 Z"
       id="p20" />
    <path
       d="M 691.66 496.47 C 695.31 497.84 698.63 500.26 702.04 502.16 C 712.26 508.04 722.41 514.06 732.65 519.92 C 731.49 522.26 730.25 524.55 728.97 526.82 C 715.05 519.46 701.72 510.94 687.98 503.23 C 689.09 500.93 690.24 498.59 691.66 496.47 Z"
       id="p21" />
    <path
       d="M 283.21 521.07 C 285.08 522.90 286.64 524.97 288.13 527.11 C 275.64 536.68 263.13 546.21 250.63 555.76 C 248.90 553.80 247.33 551.73 245.74 549.66 C 251.42 544.65 257.76 540.39 263.72 535.67 C 270.23 530.83 276.58 525.74 283.21 521.07 Z"
       id="p22" />
    <path
       d="M 659.17 541.17 C 661.30 542.81 663.16 544.73 664.94 546.75 C 661.63 550.13 658.21 553.37 655.06 556.91 C 657.06 558.96 659.00 561.10 661.13 563.00 C 661.97 563.79 663.07 563.88 663.97 563.14 C 667.05 560.44 669.78 557.31 672.69 554.41 C 674.78 556.17 676.78 557.99 678.73 559.90 C 675.30 563.30 671.89 566.72 668.51 570.16 C 671.23 573.16 674.14 575.97 677.06 578.78 C 680.53 575.59 683.77 572.19 687.13 568.90 C 689.17 570.52 691.11 572.24 693.00 574.03 C 688.11 579.77 682.68 585.05 677.08 590.08 C 666.06 579.00 654.96 568.01 643.97 556.91 C 648.67 551.35 653.98 546.27 659.17 541.17 Z"
       id="p23" />
    <path
       d="M 303.06 544.25 C 305.05 546.01 306.95 547.94 308.80 549.84 C 300.84 558.21 292.65 566.34 284.58 574.60 C 283.54 575.89 282.04 576.85 282.33 578.70 C 284.98 582.21 288.83 584.84 291.90 588.00 C 290.02 590.03 288.08 591.98 286.06 593.87 C 280.99 588.96 275.98 584.01 270.85 579.16 C 269.82 577.99 271.24 577.00 271.94 576.14 C 279.09 568.90 286.33 561.77 293.31 554.36 C 296.47 550.97 299.61 547.33 303.06 544.25 Z"
       id="p24" />
    <path
       d="M 627.48 570.77 C 627.96 578.23 627.22 585.12 628.70 592.52 C 631.15 594.68 634.29 596.11 637.05 597.84 C 643.29 601.38 649.40 605.13 655.54 608.85 C 653.07 610.51 650.58 612.11 648.04 613.66 C 641.86 609.76 635.62 605.88 629.14 602.48 C 629.18 603.97 629.28 605.45 629.42 606.93 C 631.74 611.65 635.25 615.84 638.09 620.27 C 636.05 621.91 633.93 623.42 631.76 624.87 C 622.72 611.90 613.94 598.72 605.17 585.56 C 607.24 584.10 609.31 582.66 611.38 581.21 C 614.98 585.51 617.31 590.33 621.24 594.30 C 621.44 587.64 621.22 580.96 621.32 574.29 C 622.15 573.79 622.98 573.29 623.81 572.80 C 625.03 572.11 626.25 571.43 627.48 570.77 Z"
       id="p25" />
    <path
       d="M 353.75 585.75 C 356.10 586.84 358.40 587.99 360.65 589.27 C 359.19 595.52 357.84 601.80 356.44 608.06 C 361.52 604.00 365.09 598.51 370.07 594.40 C 372.50 595.13 374.84 596.58 377.02 597.87 C 372.29 602.53 367.22 606.81 362.51 611.50 C 359.81 614.22 356.38 616.93 354.57 620.30 C 351.76 625.33 349.60 630.44 346.40 635.28 C 344.16 634.12 341.93 632.94 339.68 631.77 C 342.32 625.71 346.28 620.23 348.71 614.11 C 350.83 604.78 351.66 595.11 353.75 585.75 Z"
       id="p26" />
    <path
       d="M 579.26 599.05 C 584.86 606.80 589.80 615.05 595.02 623.06 C 598.55 628.61 602.34 634.06 605.52 639.82 C 603.33 640.47 600.91 641.81 598.61 641.75 C 597.36 640.81 596.29 638.99 594.82 638.50 C 592.17 638.95 589.59 640.61 587.08 641.62 C 587.29 643.51 587.49 645.40 587.67 647.29 C 585.38 648.19 583.08 649.06 580.75 649.85 C 577.20 634.21 573.35 618.59 570.20 602.86 C 573.22 601.57 576.21 600.26 579.26 599.05 Z M 581.28 616.85 C 581.42 622.73 583.88 628.42 584.89 634.22 C 587.13 633.59 589.32 632.88 591.50 632.07 C 588.33 627.01 585.67 620.92 581.28 616.85 Z"
       id="p27" />
    <path
       d="M 412.69 613.39 C 416.74 619.41 413.70 626.31 411.72 632.44 C 410.19 637.10 408.88 641.84 407.22 646.46 C 404.91 652.61 397.03 657.20 390.68 654.50 C 384.46 652.68 380.45 645.31 381.77 639.11 C 383.45 633.26 385.53 627.52 387.34 621.70 C 388.80 617.37 389.63 613.34 393.36 610.31 C 399.14 605.28 408.82 606.69 412.69 613.39 Z M 392.12 632.80 C 391.26 635.60 390.06 638.39 389.56 641.27 C 388.76 644.24 392.77 647.73 395.49 647.19 C 400.49 645.84 400.61 640.63 402.18 636.52 C 403.50 631.09 406.45 625.60 406.67 620.03 C 407.19 614.77 399.01 613.73 397.09 618.00 C 394.94 622.70 393.87 627.93 392.12 632.80 Z"
       id="p28" />
    <path
       d="M 534.90 613.72 C 537.56 613.42 540.23 613.25 542.90 613.10 C 545.69 626.21 548.35 639.36 551.10 652.48 C 551.57 654.76 551.73 657.02 551.93 659.34 C 549.43 659.57 546.93 659.76 544.43 659.93 C 541.96 648.71 540.38 637.19 537.17 626.15 C 535.59 629.85 533.96 633.52 532.16 637.12 C 529.25 634.31 526.37 631.50 523.15 629.05 C 525.27 640.59 528.03 652.04 529.84 663.63 C 527.28 664.15 524.71 664.57 522.10 664.83 C 519.34 649.32 515.79 633.95 513.11 618.43 C 515.83 617.75 518.85 617.08 521.67 617.26 C 524.60 619.07 526.90 622.09 529.41 624.43 C 531.57 621.01 532.80 617.16 534.90 613.72 Z"
       id="p29" />
    <path
       d="M 406.67 620.03 C 406.45 625.60 403.50 631.09 402.18 636.52 C 400.61 640.63 400.49 645.84 395.49 647.19 C 392.77 647.73 388.76 644.24 389.56 641.27 C 390.06 638.39 391.26 635.60 392.12 632.80 C 393.87 627.93 394.94 622.70 397.09 618.00 C 399.01 613.73 407.19 614.77 406.67 620.03 Z"
       id="p30" />
    <path
       d="M 439.32 617.47 C 441.77 617.37 444.27 617.62 446.72 617.79 C 446.65 623.95 445.55 629.97 444.97 636.10 C 444.43 642.23 442.99 648.61 443.44 654.72 C 444.55 659.05 450.62 660.12 452.88 655.96 C 454.39 652.27 454.29 647.53 454.73 643.58 C 455.76 635.49 456.46 627.37 457.64 619.29 C 460.02 619.45 462.40 619.63 464.78 619.79 C 464.89 629.66 462.84 639.10 462.35 648.91 C 461.69 654.03 461.58 658.77 457.67 662.62 C 452.35 668.60 442.25 667.63 437.79 661.12 C 434.26 656.84 435.40 651.71 435.66 646.57 C 437.11 636.93 437.75 627.05 439.32 617.47 Z"
       id="p31" />
    <path
       d="M 581.28 616.85 C 585.67 620.92 588.33 627.01 591.50 632.07 C 589.32 632.88 587.13 633.59 584.89 634.22 C 583.88 628.42 581.42 622.73 581.28 616.85 Z"
       id="p32" />
  </defs>
  <g
     id="g66"
     transform="translate(-0.15562847,0.03599097)"
     inkscape:label="logo">
    <g
       id="g69"
       inkscape:label="fake-it">
      <use
         fill="#000000"
         xlink:href="#p10"
         id="use44"
         inkscape:label="t" />
      <use
         fill="#000000"
         xlink:href="#p5"
         id="use39"
         inkscape:label="i" />
      <use
         fill="#000000"
         xlink:href="#p2"
         id="use36"
         inkscape:label="e" />
      <use
         fill="#000000"
         xlink:href="#p3"
         id="use37"
         inkscape:label="k" />
      <use
         fill="#000000"
         xlink:href="#p4"
         id="use38"
         inkscape:label="a" />
      <use
         fill="#000000"
         xlink:href="#p11"
         id="use45"
         inkscape:label="f" />
    </g>
    <g
       id="g70"
       inkscape:label="til-you-make-it">
      <use
         fill="#000000"
         xlink:href="#p18"
         id="use52"
         inkscape:label="t" />
      <use
         fill="#000000"
         xlink:href="#p21"
         id="use55"
         inkscape:label="i" />
      <use
         fill="#000000"
         xlink:href="#p23"
         id="use57"
         inkscape:label="e" />
      <use
         fill="#000000"
         xlink:href="#p25"
         id="use59"
         inkscape:label="k" />
      <use
         fill="#000000"
         xlink:href="#p27"
         id="use61"
         style="display:inline"
         inkscape:label="a" />
      <use
         fill="#000000"
         xlink:href="#p29"
         id="use63"
         style="display:inline"
         inkscape:label="m" />
      <use
         fill="#000000"
         xlink:href="#p31"
         id="use65"
         style="display:inline"
         inkscape:label="u" />
      <use
         fill="#000000"
         xlink:href="#p28"
         id="use62"
         style="display:inline"
         inkscape:label="o" />
      <use
         fill="#000000"
         xlink:href="#p26"
         id="use60"
         inkscape:label="y" />
      <use
         fill="#000000"
         xlink:href="#p24"
         id="use58"
         inkscape:label="l" />
      <use
         fill="#000000"
         xlink:href="#p22"
         id="use56"
         inkscape:label="i" />
      <use
         fill="#000000"
         xlink:href="#p20"
         id="use54"
         inkscape:label="t" />
      <use
         fill="#000000"
         xlink:href="#p19"
         id="use53"
         inkscape:label="'" />
    </g>
    <g
       id="g68"
       inkscape:label="stars">
      <use
         fill="#000000"
         xlink:href="#p17"
         id="use51"
         inkscape:label="right-star" />
      <use
         fill="#000000"
         xlink:href="#p16"
         id="use50"
         inkscape:label="left-star" />
    </g>
    <g
       id="g67"
       inkscape:label="devil-horns">
      <use
         fill="#000000"
         xlink:href="#p9"
         id="use43"
         transform="rotate(0.10769752,478.50461,375.48395)" />
      <use
         fill="#ffffff"
         xlink:href="#p12"
         id="use46"
         transform="rotate(0.10769752,478.50461,375.48395)" />
      <use
         fill="#ffffff"
         xlink:href="#p13"
         id="use47"
         transform="rotate(0.10769752,478.50461,375.48395)" />
      <use
         fill="#ffffff"
         xlink:href="#p14"
         id="use48"
         transform="rotate(0.10769752,478.50461,375.48395)" />
      <use
         fill="#ffffff"
         xlink:href="#p15"
         id="use49"
         transform="rotate(0.10769752,478.50461,375.48395)" />
    </g>
    <use
       fill="#000000"
       xlink:href="#p0"
       id="use34"
       style="display:inline"
       inkscape:label="outer-ring" />
    <use
       fill="#000000"
       xlink:href="#p7"
       id="use41"
       style="display:inline"
       inkscape:label="inner-ring" />
  </g>
</svg>
